<?xml version="1.0" standalone="no"?>
<!DOCTYPE svg PUBLIC "-//W3C//DTD SVG 20010904//EN"
 "http://www.w3.org/TR/2001/REC-SVG-20010904/DTD/svg10.dtd">
<svg version="1.0" xmlns="http://www.w3.org/2000/svg"
 width="1080.000000pt" height="1080.000000pt" viewBox="0 0 1080.000000 1080.000000"
 preserveAspectRatio="xMidYMid meet">

<g transform="translate(0.000000,1080.000000) scale(0.100000,-0.100000)"
fill="#000000" stroke="none">
<path d="M0 5400 l0 -5400 5400 0 5400 0 0 5400 0 5400 -5400 0 -5400 0 0
-5400z m5710 2554 c248 -42 477 -139 692 -294 149 -107 342 -324 433 -488 l40
-72 185 0 186 0 72 -73 c39 -40 72 -76 72 -80 0 -4 -484 -7 -1075 -7 l-1075 0
-25 49 c-61 120 -211 167 -336 104 -185 -95 -181 -356 7 -448 56 -28 165 -27
220 2 45 24 108 89 119 122 l6 21 883 0 882 0 17 -83 c31 -147 41 -308 28
-447 -6 -69 -14 -135 -17 -147 -6 -23 -6 -23 108 -23 l113 0 80 -80 80 -80
-1082 0 -1081 0 -30 54 c-111 196 -406 154 -464 -66 -16 -62 1 -147 40 -203
102 -145 341 -135 423 19 l24 46 848 0 847 0 -51 -101 c-28 -56 -63 -120 -77
-143 -140 -218 -346 -414 -565 -539 -388 -220 -874 -268 -1302 -126 -112 37
-286 122 -385 187 -85 57 -230 178 -230 192 0 6 227 10 624 10 l625 0 27 -50
c39 -72 131 -128 210 -130 52 0 128 28 171 65 143 122 105 347 -70 420 -46 19
-147 20 -191 1 -49 -20 -110 -79 -131 -126 l-18 -40 -924 0 c-507 0 -923 3
-923 8 0 4 33 40 73 80 l72 72 101 0 101 0 -54 104 c-87 170 -155 403 -165
566 l-3 55 862 3 863 2 19 -38 c87 -170 318 -187 430 -31 117 161 -2 392 -203
391 -33 0 -77 -6 -97 -15 -52 -21 -112 -79 -134 -127 l-18 -40 -1086 0 -1086
0 80 80 79 80 150 2 150 3 13 73 c33 202 140 461 250 610 l24 32 718 0 719 0
6 -26 c10 -38 86 -108 139 -129 56 -21 144 -17 200 10 152 72 188 282 69 401
-119 120 -330 88 -402 -61 l-22 -45 -871 0 -872 0 80 80 80 80 222 0 222 0 83
60 c93 66 257 154 363 193 133 50 261 78 455 101 64 8 284 -4 380 -20z m170
-432 c103 -51 108 -201 8 -262 -130 -79 -289 89 -200 210 49 66 124 87 192 52z
m-785 -542 c65 -63 65 -152 1 -216 -60 -60 -157 -55 -215 11 -40 46 -48 93
-26 151 25 67 73 96 148 92 49 -4 62 -9 92 -38z m799 -489 c45 -30 66 -70 66
-126 0 -67 -27 -111 -86 -136 -170 -76 -299 165 -141 261 42 26 122 27 161 1z
m-824 -503 c55 -38 74 -71 73 -129 -1 -57 -20 -90 -73 -126 -92 -63 -225 12
-225 127 0 81 69 150 150 150 27 0 54 -8 75 -22z m846 -552 c41 -40 44 -47 44
-97 0 -71 -26 -114 -86 -140 -56 -25 -111 -19 -156 19 -57 48 -73 120 -39 182
28 54 74 80 139 80 51 0 57 -3 98 -44z m-2187 -1442 c36 -10 69 -30 102 -61
87 -81 122 -192 122 -378 -1 -304 -114 -450 -348 -449 -84 0 -141 19 -207 65
-61 44 -116 164 -133 292 l-6 48 -57 -3 -57 -3 -3 -192 -2 -193 -65 0 -65 0 0
440 0 440 65 0 65 0 0 -185 0 -186 62 3 62 3 12 73 c7 40 24 98 39 127 33 68
112 140 174 159 62 20 176 20 240 0z m1240 -13 c118 -45 171 -122 171 -250 0
-125 -56 -213 -165 -263 -39 -17 -74 -23 -157 -26 l-108 -4 0 -159 0 -159 -65
0 -65 0 0 434 0 435 43 5 c23 3 53 8 67 10 59 11 227 -3 279 -23z m682 -416
l167 -446 -72 3 -71 3 -40 110 -41 110 -146 3 -146 3 -20 -53 c-10 -29 -29
-81 -42 -115 l-22 -63 -64 0 c-35 0 -64 3 -64 8 0 4 73 204 162 444 l163 438
35 0 35 0 166 -445z m-1121 375 l0 -60 -175 0 -175 0 0 -380 0 -380 -65 0 -65
0 0 440 0 440 240 0 240 0 0 -60z m1860 0 l0 -60 -130 0 -130 0 0 -380 0 -380
-70 0 -70 0 0 380 0 380 -130 0 -130 0 0 60 0 60 330 0 330 0 0 -60z m590 0
l0 -60 -180 0 -180 0 0 -125 0 -125 165 0 165 0 0 -60 0 -60 -165 0 -165 0 0
-135 0 -135 180 0 180 0 0 -60 0 -60 -250 0 -250 0 0 433 c0 239 3 437 7 440
3 4 116 7 250 7 l243 0 0 -60z m350 -105 l95 -160 100 160 101 160 73 3 c60 2
72 0 68 -11 -3 -8 -54 -88 -113 -178 -58 -90 -117 -180 -130 -200 l-22 -36
143 -227 144 -226 -79 0 -78 0 -100 161 c-56 88 -103 166 -106 172 -5 9 -7 9
-12 0 -3 -7 -51 -83 -108 -170 l-102 -158 -77 -3 -77 -3 97 148 c53 81 118
182 145 224 l49 76 -127 204 c-69 112 -129 210 -131 217 -4 10 12 12 73 10
l78 -3 96 -160z"/>
<path d="M3520 3868 c-91 -46 -137 -208 -112 -392 19 -145 71 -226 158 -244
112 -24 196 29 231 146 24 79 23 275 0 354 -41 136 -161 194 -277 136z"/>
<path d="M4718 3884 c-5 -4 -8 -79 -8 -167 l0 -159 93 4 c148 7 197 47 197
163 0 111 -51 154 -194 162 -45 3 -84 2 -88 -3z"/>
<path d="M5402 3632 c-24 -70 -46 -135 -49 -144 -5 -16 4 -18 96 -18 l100 0
-40 113 c-23 61 -45 127 -51 145 -5 17 -10 32 -11 32 -1 -1 -22 -58 -45 -128z"/>
</g>
</svg>
