<?xml version="1.0" standalone="no"?>
<!DOCTYPE svg PUBLIC "-//W3C//DTD SVG 20010904//EN"
 "http://www.w3.org/TR/2001/REC-SVG-20010904/DTD/svg10.dtd">
<svg version="1.0" xmlns="http://www.w3.org/2000/svg"
 width="1080.000000pt" height="1080.000000pt" viewBox="0 0 1080.000000 1080.000000"
 preserveAspectRatio="xMidYMid meet">

<g transform="translate(0.000000,1080.000000) scale(0.100000,-0.100000)"
fill="#000000" stroke="none">
<path d="M0 5400 l0 -5400 5400 0 5400 0 0 5400 0 5400 -5400 0 -5400 0 0
-5400z m5711 2095 c368 -49 721 -200 1010 -433 174 -140 356 -355 475 -559
l51 -88 229 -3 230 -2 94 -95 95 -95 -1352 0 -1351 0 -6 28 c-13 54 -77 125
-150 162 -61 31 -77 35 -145 34 -91 0 -148 -22 -213 -82 -72 -66 -93 -120 -93
-232 0 -111 18 -154 91 -226 148 -143 412 -96 501 91 l17 35 1100 -2 1101 -3
22 -110 c46 -227 53 -474 19 -684 l-13 -81 141 0 141 0 100 -100 100 -100
-1345 0 c-740 0 -1349 4 -1355 8 -5 4 -21 28 -34 55 -27 54 -80 106 -143 139
-63 34 -202 33 -272 -1 -60 -30 -117 -85 -148 -143 -19 -36 -23 -59 -23 -138
0 -112 21 -166 93 -232 65 -59 122 -82 212 -82 66 -1 84 3 142 32 71 35 117
81 145 145 l17 37 1057 0 1058 0 -16 -37 c-60 -145 -170 -327 -280 -463 -72
-89 -243 -257 -328 -321 -295 -225 -648 -368 -1015 -410 -131 -15 -423 -7
-545 15 -398 72 -749 243 -1034 506 l-55 50 790 0 790 0 18 -41 c10 -23 36
-59 58 -81 149 -149 401 -112 504 74 26 48 29 62 29 148 0 80 -4 102 -23 139
-35 65 -104 127 -170 151 -75 29 -186 25 -253 -8 -60 -29 -124 -94 -146 -149
l-18 -43 -1162 0 -1162 0 97 95 97 94 123 1 c68 0 122 3 120 8 -1 4 -33 68
-70 142 -76 153 -136 327 -167 480 -22 109 -41 267 -32 275 2 3 490 5 1083 5
862 0 1078 -3 1078 -13 0 -25 71 -117 113 -146 163 -112 374 -58 469 121 19
35 23 59 23 133 0 105 -20 158 -86 224 -66 66 -119 86 -224 86 -78 0 -97 -4
-141 -27 -57 -30 -117 -91 -142 -146 -9 -20 -21 -40 -27 -44 -5 -4 -617 -8
-1360 -8 l-1350 0 100 100 100 100 186 0 186 0 12 74 c41 254 142 513 290 744
l53 82 897 0 897 0 18 -41 c10 -23 36 -59 58 -81 149 -149 401 -112 504 74 26
48 29 62 29 148 0 109 -17 152 -85 220 -68 68 -111 85 -220 85 -79 0 -103 -4
-141 -23 -61 -30 -113 -82 -144 -143 l-25 -49 -1087 0 -1088 0 95 95 95 95
277 0 278 0 87 64 c267 198 606 332 948 375 111 14 380 12 496 -4z m299 -555
c54 -27 92 -95 92 -160 0 -64 -28 -117 -81 -155 -37 -26 -52 -30 -105 -30 -50
0 -70 5 -98 24 -50 35 -80 84 -86 140 -6 63 10 110 52 150 64 62 144 73 226
31z m-1012 -653 c131 -87 96 -293 -57 -333 -176 -45 -310 159 -194 297 61 72
172 88 251 36z m974 -612 c15 -3 44 -19 63 -37 64 -55 83 -118 60 -196 -36
-119 -179 -168 -285 -98 -97 64 -108 209 -22 290 30 28 110 56 142 50 8 -1 27
-5 42 -9z m-1005 -636 c96 -36 139 -158 92 -257 -56 -115 -221 -135 -308 -36
-104 118 -21 304 136 304 28 0 64 -5 80 -11z m1043 -669 c95 -49 122 -188 53
-278 -80 -105 -255 -87 -313 32 -81 169 91 332 260 246z"/>
</g>
</svg>
